<mxfile host="65bd71144e">
    <diagram id="JMKyhypWqtoXSWT0XVxW" name="Page-1">
        <mxGraphModel dx="1883" dy="1298" grid="1" gridSize="10" guides="1" tooltips="1" connect="1" arrows="1" fold="1" page="1" pageScale="1" pageWidth="850" pageHeight="1100" math="0" shadow="0">
            <root>
                <mxCell id="0"/>
                <mxCell id="1" parent="0"/>
                <mxCell id="5" value="" style="rounded=0;whiteSpace=wrap;html=1;fillColor=#eeeeee;strokeColor=#36393d;" vertex="1" parent="1">
                    <mxGeometry x="230" y="70" width="460" height="1570" as="geometry"/>
                </mxCell>
                <mxCell id="8" value="Flashlearn" style="text;html=1;strokeColor=none;fillColor=none;align=center;verticalAlign=middle;whiteSpace=wrap;rounded=0;fontColor=#000000;fontStyle=1;fontSize=28;" vertex="1" parent="1">
                    <mxGeometry x="255" y="80" width="120" height="60" as="geometry"/>
                </mxCell>
                <mxCell id="12" value="" style="group" vertex="1" connectable="0" parent="1">
                    <mxGeometry x="160" y="430" width="620" height="180" as="geometry"/>
                </mxCell>
                <mxCell id="9" value="" style="rounded=1;whiteSpace=wrap;html=1;fontSize=28;fontColor=#000000;shadow=1;" vertex="1" parent="12">
                    <mxGeometry width="300" height="180" as="geometry"/>
                </mxCell>
                <mxCell id="11" value="" style="rounded=1;whiteSpace=wrap;html=1;fontSize=28;fontColor=#000000;shadow=1;" vertex="1" parent="12">
                    <mxGeometry x="320" width="300" height="180" as="geometry"/>
                </mxCell>
                <mxCell id="13" value="Flashcard categories&amp;nbsp;" style="text;html=1;strokeColor=none;fillColor=none;align=center;verticalAlign=middle;whiteSpace=wrap;rounded=0;shadow=1;fontSize=28;fontColor=#000000;" vertex="1" parent="1">
                    <mxGeometry x="230" y="1020" width="280" height="30" as="geometry"/>
                </mxCell>
                <mxCell id="15" value="" style="whiteSpace=wrap;html=1;aspect=fixed;shadow=1;fontSize=28;fontColor=#000000;" vertex="1" parent="1">
                    <mxGeometry x="240" y="1080" width="120" height="120" as="geometry"/>
                </mxCell>
                <mxCell id="18" value="" style="whiteSpace=wrap;html=1;aspect=fixed;shadow=1;fontSize=28;fontColor=#000000;" vertex="1" parent="1">
                    <mxGeometry x="390" y="1080" width="120" height="120" as="geometry"/>
                </mxCell>
                <mxCell id="19" value="" style="whiteSpace=wrap;html=1;aspect=fixed;shadow=1;fontSize=28;fontColor=#000000;" vertex="1" parent="1">
                    <mxGeometry x="540" y="1080" width="120" height="120" as="geometry"/>
                </mxCell>
                <mxCell id="20" value="" style="whiteSpace=wrap;html=1;aspect=fixed;shadow=1;fontSize=28;fontColor=#000000;" vertex="1" parent="1">
                    <mxGeometry x="245" y="1230" width="120" height="120" as="geometry"/>
                </mxCell>
                <mxCell id="21" value="" style="whiteSpace=wrap;html=1;aspect=fixed;shadow=1;fontSize=28;fontColor=#000000;" vertex="1" parent="1">
                    <mxGeometry x="395" y="1230" width="120" height="120" as="geometry"/>
                </mxCell>
                <mxCell id="22" value="" style="whiteSpace=wrap;html=1;aspect=fixed;shadow=1;fontSize=28;fontColor=#000000;" vertex="1" parent="1">
                    <mxGeometry x="545" y="1230" width="120" height="120" as="geometry"/>
                </mxCell>
                <mxCell id="23" value="Top creator&amp;nbsp;" style="text;html=1;strokeColor=none;fillColor=none;align=center;verticalAlign=middle;whiteSpace=wrap;rounded=0;shadow=1;fontSize=19;fontColor=#000000;" vertex="1" parent="1">
                    <mxGeometry x="190" y="140" width="200" height="30" as="geometry"/>
                </mxCell>
                <mxCell id="29" value="" style="group" vertex="1" connectable="0" parent="1">
                    <mxGeometry x="240" y="180" width="120" height="130" as="geometry"/>
                </mxCell>
                <mxCell id="24" value="" style="rounded=1;whiteSpace=wrap;html=1;shadow=0;fontSize=19;fontColor=#000000;" vertex="1" parent="29">
                    <mxGeometry width="120" height="130" as="geometry"/>
                </mxCell>
                <mxCell id="26" value="" style="rounded=1;whiteSpace=wrap;html=1;shadow=0;fontSize=19;fontColor=#030302;strokeColor=#F0F0F0;fillColor=#F0F0F0;" vertex="1" parent="29">
                    <mxGeometry y="80" width="120" height="50" as="geometry"/>
                </mxCell>
                <mxCell id="28" value="" style="ellipse;whiteSpace=wrap;html=1;aspect=fixed;shadow=0;strokeColor=#311c1c;fontSize=19;fontColor=#030302;fillColor=#F0F0F0;" vertex="1" parent="29">
                    <mxGeometry x="30" y="60" width="60" height="60" as="geometry"/>
                </mxCell>
                <mxCell id="30" value="" style="group" vertex="1" connectable="0" parent="1">
                    <mxGeometry x="380" y="180" width="120" height="130" as="geometry"/>
                </mxCell>
                <mxCell id="31" value="" style="rounded=1;whiteSpace=wrap;html=1;shadow=0;fontSize=19;fontColor=#000000;" vertex="1" parent="30">
                    <mxGeometry width="120" height="130" as="geometry"/>
                </mxCell>
                <mxCell id="32" value="" style="rounded=1;whiteSpace=wrap;html=1;shadow=0;fontSize=19;fontColor=#030302;strokeColor=#F0F0F0;fillColor=#F0F0F0;" vertex="1" parent="30">
                    <mxGeometry y="80" width="120" height="50" as="geometry"/>
                </mxCell>
                <mxCell id="33" value="" style="ellipse;whiteSpace=wrap;html=1;aspect=fixed;shadow=0;strokeColor=#311c1c;fontSize=19;fontColor=#030302;fillColor=#F0F0F0;" vertex="1" parent="30">
                    <mxGeometry x="30" y="60" width="60" height="60" as="geometry"/>
                </mxCell>
                <mxCell id="34" value="" style="group" vertex="1" connectable="0" parent="1">
                    <mxGeometry x="520" y="170" width="120" height="130" as="geometry"/>
                </mxCell>
                <mxCell id="35" value="" style="rounded=1;whiteSpace=wrap;html=1;shadow=0;fontSize=19;fontColor=#000000;" vertex="1" parent="34">
                    <mxGeometry width="120" height="130" as="geometry"/>
                </mxCell>
                <mxCell id="36" value="" style="rounded=1;whiteSpace=wrap;html=1;shadow=0;fontSize=19;fontColor=#030302;strokeColor=#F0F0F0;fillColor=#F0F0F0;" vertex="1" parent="34">
                    <mxGeometry y="80" width="120" height="50" as="geometry"/>
                </mxCell>
                <mxCell id="37" value="" style="ellipse;whiteSpace=wrap;html=1;aspect=fixed;shadow=0;strokeColor=#311c1c;fontSize=19;fontColor=#030302;fillColor=#F0F0F0;" vertex="1" parent="34">
                    <mxGeometry x="30" y="60" width="60" height="60" as="geometry"/>
                </mxCell>
                <mxCell id="38" value="" style="group" vertex="1" connectable="0" parent="1">
                    <mxGeometry x="650" y="170" width="120" height="130" as="geometry"/>
                </mxCell>
                <mxCell id="39" value="" style="rounded=1;whiteSpace=wrap;html=1;shadow=0;fontSize=19;fontColor=#000000;" vertex="1" parent="38">
                    <mxGeometry width="120" height="130" as="geometry"/>
                </mxCell>
                <mxCell id="40" value="" style="rounded=1;whiteSpace=wrap;html=1;shadow=0;fontSize=19;fontColor=#030302;strokeColor=#F0F0F0;fillColor=#F0F0F0;" vertex="1" parent="38">
                    <mxGeometry y="80" width="120" height="50" as="geometry"/>
                </mxCell>
                <mxCell id="41" value="" style="ellipse;whiteSpace=wrap;html=1;aspect=fixed;shadow=0;strokeColor=#311c1c;fontSize=19;fontColor=#030302;fillColor=#F0F0F0;" vertex="1" parent="38">
                    <mxGeometry x="30" y="60" width="60" height="60" as="geometry"/>
                </mxCell>
                <mxCell id="42" value="" style="rounded=1;whiteSpace=wrap;html=1;shadow=0;sketch=0;strokeColor=#311c1c;fontSize=19;fontColor=#030302;fillColor=#F0F0F0;arcSize=41;" vertex="1" parent="1">
                    <mxGeometry x="250" y="350" width="420" height="60" as="geometry"/>
                </mxCell>
                <mxCell id="43" value="" style="rounded=1;whiteSpace=wrap;html=1;shadow=0;sketch=0;strokeColor=#3700CC;fontSize=19;fillColor=#6a00ff;arcSize=45;fontColor=#ffffff;" vertex="1" parent="1">
                    <mxGeometry x="250" y="350" width="220" height="60" as="geometry"/>
                </mxCell>
                <mxCell id="44" value="Home" style="text;html=1;strokeColor=none;fillColor=none;align=center;verticalAlign=middle;whiteSpace=wrap;rounded=0;shadow=0;sketch=0;fontSize=19;fontColor=#FFFFFF;" vertex="1" parent="1">
                    <mxGeometry x="320" y="365" width="60" height="30" as="geometry"/>
                </mxCell>
                <mxCell id="45" value="Discover" style="text;html=1;strokeColor=none;fillColor=none;align=center;verticalAlign=middle;whiteSpace=wrap;rounded=0;shadow=0;sketch=0;fontSize=19;fontColor=#000000;" vertex="1" parent="1">
                    <mxGeometry x="560" y="365" width="60" height="30" as="geometry"/>
                </mxCell>
                <mxCell id="46" value="Top Playlist" style="text;html=1;strokeColor=none;fillColor=none;align=center;verticalAlign=middle;whiteSpace=wrap;rounded=0;shadow=1;fontSize=28;fontColor=#000000;" vertex="1" parent="1">
                    <mxGeometry x="175" y="1380" width="280" height="30" as="geometry"/>
                </mxCell>
                <mxCell id="58" value="" style="group" vertex="1" connectable="0" parent="1">
                    <mxGeometry x="410" y="1460" width="160" height="50" as="geometry"/>
                </mxCell>
                <mxCell id="53" value="" style="rounded=1;whiteSpace=wrap;html=1;shadow=0;sketch=0;strokeColor=#311c1c;fontSize=19;fontColor=#000000;fillColor=#F0F0F0;" vertex="1" parent="58">
                    <mxGeometry width="160" height="50" as="geometry"/>
                </mxCell>
                <mxCell id="54" value="&lt;span style=&quot;color: rgb(69, 58, 58); font-size: 7px;&quot;&gt;Gce&lt;/span&gt;" style="rounded=1;whiteSpace=wrap;html=1;shadow=0;sketch=0;strokeColor=#311c1c;fontSize=19;fontColor=#BCB8FF;fillColor=#BCB8FF;verticalAlign=top;" vertex="1" parent="58">
                    <mxGeometry x="5" y="5" width="50" height="40" as="geometry"/>
                </mxCell>
                <mxCell id="55" value="&lt;span style=&quot;font-size: 8px;&quot;&gt;General certification Exam&lt;/span&gt;" style="text;html=1;align=center;verticalAlign=middle;whiteSpace=wrap;rounded=0;shadow=0;sketch=0;fontSize=8;fontColor=#453a3a;" vertex="1" parent="58">
                    <mxGeometry x="50" width="110" height="30" as="geometry"/>
                </mxCell>
                <mxCell id="56" style="edgeStyle=none;html=1;exitX=0.5;exitY=0;exitDx=0;exitDy=0;fontSize=7;fontColor=#453a3a;" edge="1" parent="58" source="57" target="55">
                    <mxGeometry relative="1" as="geometry"/>
                </mxCell>
                <mxCell id="57" value="15 collections" style="text;html=1;strokeColor=none;fillColor=none;align=center;verticalAlign=middle;whiteSpace=wrap;rounded=0;shadow=0;sketch=0;fontSize=7;fontColor=#453a3a;" vertex="1" parent="58">
                    <mxGeometry x="30" y="20" width="100" height="15" as="geometry"/>
                </mxCell>
                <mxCell id="59" value="" style="group" vertex="1" connectable="0" parent="1">
                    <mxGeometry x="240" y="1460" width="160" height="50" as="geometry"/>
                </mxCell>
                <mxCell id="47" value="" style="rounded=1;whiteSpace=wrap;html=1;shadow=0;sketch=0;strokeColor=#311c1c;fontSize=19;fontColor=#000000;fillColor=#F0F0F0;" vertex="1" parent="59">
                    <mxGeometry width="160" height="50" as="geometry"/>
                </mxCell>
                <mxCell id="48" value="&lt;span style=&quot;color: rgb(69, 58, 58); font-size: 7px;&quot;&gt;Gce&lt;/span&gt;" style="rounded=1;whiteSpace=wrap;html=1;shadow=0;sketch=0;strokeColor=#311c1c;fontSize=19;fontColor=#BCB8FF;fillColor=#BCB8FF;verticalAlign=top;" vertex="1" parent="59">
                    <mxGeometry x="5" y="5" width="50" height="40" as="geometry"/>
                </mxCell>
                <mxCell id="50" value="&lt;span style=&quot;font-size: 8px;&quot;&gt;General certification Exam&lt;/span&gt;" style="text;html=1;align=center;verticalAlign=middle;whiteSpace=wrap;rounded=0;shadow=0;sketch=0;fontSize=8;fontColor=#453a3a;" vertex="1" parent="59">
                    <mxGeometry x="50" width="110" height="30" as="geometry"/>
                </mxCell>
                <mxCell id="52" style="edgeStyle=none;html=1;exitX=0.5;exitY=0;exitDx=0;exitDy=0;fontSize=7;fontColor=#453a3a;" edge="1" parent="59" source="51" target="50">
                    <mxGeometry relative="1" as="geometry"/>
                </mxCell>
                <mxCell id="51" value="15 collections" style="text;html=1;strokeColor=none;fillColor=none;align=center;verticalAlign=middle;whiteSpace=wrap;rounded=0;shadow=0;sketch=0;fontSize=7;fontColor=#453a3a;" vertex="1" parent="59">
                    <mxGeometry x="30" y="20" width="100" height="15" as="geometry"/>
                </mxCell>
                <mxCell id="60" value="" style="group" vertex="1" connectable="0" parent="1">
                    <mxGeometry x="580" y="1460" width="160" height="50" as="geometry"/>
                </mxCell>
                <mxCell id="61" value="" style="rounded=1;whiteSpace=wrap;html=1;shadow=0;sketch=0;strokeColor=#311c1c;fontSize=19;fontColor=#000000;fillColor=#F0F0F0;" vertex="1" parent="60">
                    <mxGeometry width="160" height="50" as="geometry"/>
                </mxCell>
                <mxCell id="62" value="&lt;span style=&quot;color: rgb(69, 58, 58); font-size: 7px;&quot;&gt;Gce&lt;/span&gt;" style="rounded=1;whiteSpace=wrap;html=1;shadow=0;sketch=0;strokeColor=#311c1c;fontSize=19;fontColor=#BCB8FF;fillColor=#BCB8FF;verticalAlign=top;" vertex="1" parent="60">
                    <mxGeometry x="5" y="5" width="50" height="40" as="geometry"/>
                </mxCell>
                <mxCell id="63" value="&lt;span style=&quot;font-size: 8px;&quot;&gt;General certification Exam&lt;/span&gt;" style="text;html=1;align=center;verticalAlign=middle;whiteSpace=wrap;rounded=0;shadow=0;sketch=0;fontSize=8;fontColor=#453a3a;" vertex="1" parent="60">
                    <mxGeometry x="50" width="110" height="30" as="geometry"/>
                </mxCell>
                <mxCell id="64" style="edgeStyle=none;html=1;exitX=0.5;exitY=0;exitDx=0;exitDy=0;fontSize=7;fontColor=#453a3a;" edge="1" parent="60" source="65" target="63">
                    <mxGeometry relative="1" as="geometry"/>
                </mxCell>
                <mxCell id="65" value="15 collections" style="text;html=1;strokeColor=none;fillColor=none;align=center;verticalAlign=middle;whiteSpace=wrap;rounded=0;shadow=0;sketch=0;fontSize=7;fontColor=#453a3a;" vertex="1" parent="60">
                    <mxGeometry x="30" y="20" width="100" height="15" as="geometry"/>
                </mxCell>
                <mxCell id="66" value="Your favourites" style="text;html=1;strokeColor=none;fillColor=none;align=center;verticalAlign=middle;whiteSpace=wrap;rounded=0;shadow=1;fontSize=28;fontColor=#000000;" vertex="1" parent="1">
                    <mxGeometry x="190" y="870" width="280" height="30" as="geometry"/>
                </mxCell>
                <mxCell id="67" value="" style="group" vertex="1" connectable="0" parent="1">
                    <mxGeometry x="405" y="930" width="160" height="50" as="geometry"/>
                </mxCell>
                <mxCell id="68" value="" style="rounded=1;whiteSpace=wrap;html=1;shadow=0;sketch=0;strokeColor=#311c1c;fontSize=19;fontColor=#000000;fillColor=#F0F0F0;" vertex="1" parent="67">
                    <mxGeometry width="160" height="50" as="geometry"/>
                </mxCell>
                <mxCell id="69" value="&lt;span style=&quot;color: rgb(69, 58, 58); font-size: 7px;&quot;&gt;Gce&lt;/span&gt;" style="rounded=1;whiteSpace=wrap;html=1;shadow=0;sketch=0;strokeColor=#311c1c;fontSize=19;fontColor=#BCB8FF;fillColor=#BCB8FF;verticalAlign=top;" vertex="1" parent="67">
                    <mxGeometry x="5" y="5" width="50" height="40" as="geometry"/>
                </mxCell>
                <mxCell id="70" value="&lt;span style=&quot;font-size: 8px;&quot;&gt;General certification Exam&lt;/span&gt;" style="text;html=1;align=center;verticalAlign=middle;whiteSpace=wrap;rounded=0;shadow=0;sketch=0;fontSize=8;fontColor=#453a3a;" vertex="1" parent="67">
                    <mxGeometry x="50" width="110" height="30" as="geometry"/>
                </mxCell>
                <mxCell id="71" style="edgeStyle=none;html=1;exitX=0.5;exitY=0;exitDx=0;exitDy=0;fontSize=7;fontColor=#453a3a;" edge="1" parent="67" source="72" target="70">
                    <mxGeometry relative="1" as="geometry"/>
                </mxCell>
                <mxCell id="72" value="15 collections" style="text;html=1;strokeColor=none;fillColor=none;align=center;verticalAlign=middle;whiteSpace=wrap;rounded=0;shadow=0;sketch=0;fontSize=7;fontColor=#453a3a;" vertex="1" parent="67">
                    <mxGeometry x="30" y="20" width="100" height="15" as="geometry"/>
                </mxCell>
                <mxCell id="73" value="" style="group" vertex="1" connectable="0" parent="1">
                    <mxGeometry x="235" y="930" width="160" height="50" as="geometry"/>
                </mxCell>
                <mxCell id="74" value="" style="rounded=1;whiteSpace=wrap;html=1;shadow=0;sketch=0;strokeColor=#311c1c;fontSize=19;fontColor=#000000;fillColor=#F0F0F0;" vertex="1" parent="73">
                    <mxGeometry width="160" height="50" as="geometry"/>
                </mxCell>
                <mxCell id="75" value="&lt;span style=&quot;color: rgb(69, 58, 58); font-size: 7px;&quot;&gt;Gce&lt;/span&gt;" style="rounded=1;whiteSpace=wrap;html=1;shadow=0;sketch=0;strokeColor=#311c1c;fontSize=19;fontColor=#BCB8FF;fillColor=#BCB8FF;verticalAlign=top;" vertex="1" parent="73">
                    <mxGeometry x="5" y="5" width="50" height="40" as="geometry"/>
                </mxCell>
                <mxCell id="76" value="&lt;span style=&quot;font-size: 8px;&quot;&gt;General certification Exam&lt;/span&gt;" style="text;html=1;align=center;verticalAlign=middle;whiteSpace=wrap;rounded=0;shadow=0;sketch=0;fontSize=8;fontColor=#453a3a;" vertex="1" parent="73">
                    <mxGeometry x="50" width="110" height="30" as="geometry"/>
                </mxCell>
                <mxCell id="77" style="edgeStyle=none;html=1;exitX=0.5;exitY=0;exitDx=0;exitDy=0;fontSize=7;fontColor=#453a3a;" edge="1" parent="73" source="78" target="76">
                    <mxGeometry relative="1" as="geometry"/>
                </mxCell>
                <mxCell id="78" value="15 collections" style="text;html=1;strokeColor=none;fillColor=none;align=center;verticalAlign=middle;whiteSpace=wrap;rounded=0;shadow=0;sketch=0;fontSize=7;fontColor=#453a3a;" vertex="1" parent="73">
                    <mxGeometry x="30" y="20" width="100" height="15" as="geometry"/>
                </mxCell>
                <mxCell id="79" value="" style="group" vertex="1" connectable="0" parent="1">
                    <mxGeometry x="575" y="930" width="160" height="50" as="geometry"/>
                </mxCell>
                <mxCell id="80" value="" style="rounded=1;whiteSpace=wrap;html=1;shadow=0;sketch=0;strokeColor=#311c1c;fontSize=19;fontColor=#000000;fillColor=#F0F0F0;" vertex="1" parent="79">
                    <mxGeometry width="160" height="50" as="geometry"/>
                </mxCell>
                <mxCell id="81" value="&lt;span style=&quot;color: rgb(69, 58, 58); font-size: 7px;&quot;&gt;Gce&lt;/span&gt;" style="rounded=1;whiteSpace=wrap;html=1;shadow=0;sketch=0;strokeColor=#311c1c;fontSize=19;fontColor=#BCB8FF;fillColor=#BCB8FF;verticalAlign=top;" vertex="1" parent="79">
                    <mxGeometry x="5" y="5" width="50" height="40" as="geometry"/>
                </mxCell>
                <mxCell id="82" value="&lt;span style=&quot;font-size: 8px;&quot;&gt;General certification Exam&lt;/span&gt;" style="text;html=1;align=center;verticalAlign=middle;whiteSpace=wrap;rounded=0;shadow=0;sketch=0;fontSize=8;fontColor=#453a3a;" vertex="1" parent="79">
                    <mxGeometry x="50" width="110" height="30" as="geometry"/>
                </mxCell>
                <mxCell id="83" style="edgeStyle=none;html=1;exitX=0.5;exitY=0;exitDx=0;exitDy=0;fontSize=7;fontColor=#453a3a;" edge="1" parent="79" source="84" target="82">
                    <mxGeometry relative="1" as="geometry"/>
                </mxCell>
                <mxCell id="84" value="15 collections" style="text;html=1;strokeColor=none;fillColor=none;align=center;verticalAlign=middle;whiteSpace=wrap;rounded=0;shadow=0;sketch=0;fontSize=7;fontColor=#453a3a;" vertex="1" parent="79">
                    <mxGeometry x="30" y="20" width="100" height="15" as="geometry"/>
                </mxCell>
                <mxCell id="85" value="Your favourites" style="text;html=1;strokeColor=none;fillColor=none;align=center;verticalAlign=middle;whiteSpace=wrap;rounded=0;shadow=1;fontSize=28;fontColor=#000000;" vertex="1" parent="1">
                    <mxGeometry x="190" y="640" width="280" height="30" as="geometry"/>
                </mxCell>
                <mxCell id="90" value="" style="group" vertex="1" connectable="0" parent="1">
                    <mxGeometry x="240" y="680" width="130" height="140" as="geometry"/>
                </mxCell>
                <mxCell id="86" value="" style="rounded=1;whiteSpace=wrap;html=1;shadow=0;sketch=0;strokeColor=#311c1c;fontSize=7;fontColor=#453a3a;fillColor=#BCB8FF;" vertex="1" parent="90">
                    <mxGeometry width="130" height="140" as="geometry"/>
                </mxCell>
                <mxCell id="87" value="" style="rounded=1;whiteSpace=wrap;html=1;shadow=0;sketch=0;strokeColor=#36393d;fontSize=7;fillColor=#eeeeee;arcSize=31;" vertex="1" parent="90">
                    <mxGeometry y="80" width="130" height="60" as="geometry"/>
                </mxCell>
                <mxCell id="88" value="&lt;font style=&quot;font-size: 19px;&quot;&gt;physics&lt;/font&gt;" style="text;html=1;strokeColor=none;fillColor=none;align=center;verticalAlign=middle;whiteSpace=wrap;rounded=0;shadow=0;sketch=0;fontSize=7;fontColor=#453a3a;strokeWidth=10;" vertex="1" parent="90">
                    <mxGeometry x="5" y="90" width="60" height="30" as="geometry"/>
                </mxCell>
                <mxCell id="91" value="" style="group" vertex="1" connectable="0" parent="1">
                    <mxGeometry x="390" y="680" width="130" height="140" as="geometry"/>
                </mxCell>
                <mxCell id="92" value="" style="rounded=1;whiteSpace=wrap;html=1;shadow=0;sketch=0;strokeColor=#311c1c;fontSize=7;fontColor=#453a3a;fillColor=#BCB8FF;" vertex="1" parent="91">
                    <mxGeometry width="130" height="140" as="geometry"/>
                </mxCell>
                <mxCell id="93" value="" style="rounded=1;whiteSpace=wrap;html=1;shadow=0;sketch=0;strokeColor=#36393d;fontSize=7;fillColor=#eeeeee;arcSize=31;" vertex="1" parent="91">
                    <mxGeometry y="80" width="130" height="60" as="geometry"/>
                </mxCell>
                <mxCell id="94" value="&lt;font style=&quot;font-size: 19px;&quot;&gt;physics&lt;/font&gt;" style="text;html=1;strokeColor=none;fillColor=none;align=center;verticalAlign=middle;whiteSpace=wrap;rounded=0;shadow=0;sketch=0;fontSize=7;fontColor=#453a3a;strokeWidth=10;" vertex="1" parent="91">
                    <mxGeometry x="5" y="90" width="60" height="30" as="geometry"/>
                </mxCell>
                <mxCell id="95" value="" style="group" vertex="1" connectable="0" parent="1">
                    <mxGeometry x="540" y="680" width="130" height="140" as="geometry"/>
                </mxCell>
                <mxCell id="96" value="" style="rounded=1;whiteSpace=wrap;html=1;shadow=0;sketch=0;strokeColor=#311c1c;fontSize=7;fontColor=#453a3a;fillColor=#BCB8FF;" vertex="1" parent="95">
                    <mxGeometry width="130" height="140" as="geometry"/>
                </mxCell>
                <mxCell id="97" value="" style="rounded=1;whiteSpace=wrap;html=1;shadow=0;sketch=0;strokeColor=#36393d;fontSize=7;fillColor=#eeeeee;arcSize=31;" vertex="1" parent="95">
                    <mxGeometry y="80" width="130" height="60" as="geometry"/>
                </mxCell>
                <mxCell id="98" value="&lt;font style=&quot;font-size: 19px;&quot;&gt;physics&lt;/font&gt;" style="text;html=1;strokeColor=none;fillColor=none;align=center;verticalAlign=middle;whiteSpace=wrap;rounded=0;shadow=0;sketch=0;fontSize=7;fontColor=#453a3a;strokeWidth=10;" vertex="1" parent="95">
                    <mxGeometry x="5" y="90" width="60" height="30" as="geometry"/>
                </mxCell>
                <mxCell id="99" value="" style="rounded=0;whiteSpace=wrap;html=1;fillColor=#eeeeee;strokeColor=#36393d;" vertex="1" parent="1">
                    <mxGeometry x="970" y="70" width="460" height="1650" as="geometry"/>
                </mxCell>
                <mxCell id="100" value="Flashlearn" style="text;html=1;strokeColor=none;fillColor=none;align=center;verticalAlign=middle;whiteSpace=wrap;rounded=0;fontColor=#000000;fontStyle=1;fontSize=28;" vertex="1" parent="1">
                    <mxGeometry x="995" y="80" width="120" height="60" as="geometry"/>
                </mxCell>
                <mxCell id="101" value="Top creator&amp;nbsp;" style="text;html=1;strokeColor=none;fillColor=none;align=center;verticalAlign=middle;whiteSpace=wrap;rounded=0;shadow=1;fontSize=19;fontColor=#000000;" vertex="1" parent="1">
                    <mxGeometry x="930" y="140" width="200" height="30" as="geometry"/>
                </mxCell>
                <mxCell id="102" value="" style="group" vertex="1" connectable="0" parent="1">
                    <mxGeometry x="980" y="180" width="120" height="130" as="geometry"/>
                </mxCell>
                <mxCell id="103" value="" style="rounded=1;whiteSpace=wrap;html=1;shadow=0;fontSize=19;fontColor=#000000;" vertex="1" parent="102">
                    <mxGeometry width="120" height="130" as="geometry"/>
                </mxCell>
                <mxCell id="104" value="" style="rounded=1;whiteSpace=wrap;html=1;shadow=0;fontSize=19;fontColor=#030302;strokeColor=#F0F0F0;fillColor=#F0F0F0;" vertex="1" parent="102">
                    <mxGeometry y="80" width="120" height="50" as="geometry"/>
                </mxCell>
                <mxCell id="105" value="" style="ellipse;whiteSpace=wrap;html=1;aspect=fixed;shadow=0;strokeColor=#311c1c;fontSize=19;fontColor=#030302;fillColor=#F0F0F0;" vertex="1" parent="102">
                    <mxGeometry x="30" y="60" width="60" height="60" as="geometry"/>
                </mxCell>
                <mxCell id="106" value="" style="group" vertex="1" connectable="0" parent="1">
                    <mxGeometry x="1120" y="180" width="120" height="130" as="geometry"/>
                </mxCell>
                <mxCell id="107" value="" style="rounded=1;whiteSpace=wrap;html=1;shadow=0;fontSize=19;fontColor=#000000;" vertex="1" parent="106">
                    <mxGeometry width="120" height="130" as="geometry"/>
                </mxCell>
                <mxCell id="108" value="" style="rounded=1;whiteSpace=wrap;html=1;shadow=0;fontSize=19;fontColor=#030302;strokeColor=#F0F0F0;fillColor=#F0F0F0;" vertex="1" parent="106">
                    <mxGeometry y="80" width="120" height="50" as="geometry"/>
                </mxCell>
                <mxCell id="109" value="" style="ellipse;whiteSpace=wrap;html=1;aspect=fixed;shadow=0;strokeColor=#311c1c;fontSize=19;fontColor=#030302;fillColor=#F0F0F0;" vertex="1" parent="106">
                    <mxGeometry x="30" y="60" width="60" height="60" as="geometry"/>
                </mxCell>
                <mxCell id="110" value="" style="group" vertex="1" connectable="0" parent="1">
                    <mxGeometry x="1260" y="170" width="120" height="130" as="geometry"/>
                </mxCell>
                <mxCell id="111" value="" style="rounded=1;whiteSpace=wrap;html=1;shadow=0;fontSize=19;fontColor=#000000;" vertex="1" parent="110">
                    <mxGeometry width="120" height="130" as="geometry"/>
                </mxCell>
                <mxCell id="112" value="" style="rounded=1;whiteSpace=wrap;html=1;shadow=0;fontSize=19;fontColor=#030302;strokeColor=#F0F0F0;fillColor=#F0F0F0;" vertex="1" parent="110">
                    <mxGeometry y="80" width="120" height="50" as="geometry"/>
                </mxCell>
                <mxCell id="113" value="" style="ellipse;whiteSpace=wrap;html=1;aspect=fixed;shadow=0;strokeColor=#311c1c;fontSize=19;fontColor=#030302;fillColor=#F0F0F0;" vertex="1" parent="110">
                    <mxGeometry x="30" y="60" width="60" height="60" as="geometry"/>
                </mxCell>
                <mxCell id="114" value="" style="group" vertex="1" connectable="0" parent="1">
                    <mxGeometry x="1390" y="170" width="120" height="130" as="geometry"/>
                </mxCell>
                <mxCell id="115" value="" style="rounded=1;whiteSpace=wrap;html=1;shadow=0;fontSize=19;fontColor=#000000;" vertex="1" parent="114">
                    <mxGeometry width="120" height="130" as="geometry"/>
                </mxCell>
                <mxCell id="116" value="" style="rounded=1;whiteSpace=wrap;html=1;shadow=0;fontSize=19;fontColor=#030302;strokeColor=#F0F0F0;fillColor=#F0F0F0;" vertex="1" parent="114">
                    <mxGeometry y="80" width="120" height="50" as="geometry"/>
                </mxCell>
                <mxCell id="117" value="" style="ellipse;whiteSpace=wrap;html=1;aspect=fixed;shadow=0;strokeColor=#311c1c;fontSize=19;fontColor=#030302;fillColor=#F0F0F0;" vertex="1" parent="114">
                    <mxGeometry x="30" y="60" width="60" height="60" as="geometry"/>
                </mxCell>
                <mxCell id="118" value="" style="rounded=1;whiteSpace=wrap;html=1;shadow=0;sketch=0;strokeColor=#311c1c;fontSize=19;fontColor=#030302;fillColor=#F0F0F0;arcSize=41;" vertex="1" parent="1">
                    <mxGeometry x="990" y="350" width="420" height="60" as="geometry"/>
                </mxCell>
                <mxCell id="119" value="" style="rounded=1;whiteSpace=wrap;html=1;shadow=0;sketch=0;strokeColor=#3700CC;fontSize=19;fillColor=#6a00ff;arcSize=45;fontColor=#ffffff;" vertex="1" parent="1">
                    <mxGeometry x="1190" y="350" width="220" height="60" as="geometry"/>
                </mxCell>
                <mxCell id="120" value="Home" style="text;html=1;strokeColor=none;fillColor=none;align=center;verticalAlign=middle;whiteSpace=wrap;rounded=0;shadow=0;sketch=0;fontSize=19;fontColor=#030303;" vertex="1" parent="1">
                    <mxGeometry x="1060" y="365" width="60" height="30" as="geometry"/>
                </mxCell>
                <mxCell id="121" value="Discover" style="text;html=1;strokeColor=none;fillColor=none;align=center;verticalAlign=middle;whiteSpace=wrap;rounded=0;shadow=0;sketch=0;fontSize=19;fontColor=#000000;" vertex="1" parent="1">
                    <mxGeometry x="1300" y="365" width="60" height="30" as="geometry"/>
                </mxCell>
                <mxCell id="122" value="" style="curved=1;endArrow=classic;html=1;fontSize=19;fontColor=#453a3a;exitX=1;exitY=1;exitDx=0;exitDy=0;" edge="1" parent="1" source="45">
                    <mxGeometry width="50" height="50" relative="1" as="geometry">
                        <mxPoint x="880" y="680" as="sourcePoint"/>
                        <mxPoint x="960" y="450" as="targetPoint"/>
                        <Array as="points">
                            <mxPoint x="930" y="680"/>
                            <mxPoint x="810" y="300"/>
                            <mxPoint x="830" y="430"/>
                        </Array>
                    </mxGeometry>
                </mxCell>
                <mxCell id="131" value="" style="group" vertex="1" connectable="0" parent="1">
                    <mxGeometry x="990" y="460" width="420" height="550" as="geometry"/>
                </mxCell>
                <mxCell id="124" value="" style="rounded=1;whiteSpace=wrap;html=1;shadow=1;sketch=0;strokeColor=none;strokeWidth=3;fontSize=19;fontColor=#030303;fillColor=#FFFFFF;" vertex="1" parent="131">
                    <mxGeometry width="420" height="550" as="geometry"/>
                </mxCell>
                <mxCell id="125" value="" style="ellipse;whiteSpace=wrap;html=1;aspect=fixed;rounded=0;shadow=1;sketch=0;strokeColor=none;strokeWidth=3;fontSize=19;fontColor=#030303;fillColor=#FFFFFF;" vertex="1" parent="131">
                    <mxGeometry x="25" y="20" width="80" height="80" as="geometry"/>
                </mxCell>
                <mxCell id="126" value="John Doe" style="text;html=1;strokeColor=none;fillColor=none;align=center;verticalAlign=middle;whiteSpace=wrap;rounded=0;shadow=1;sketch=0;strokeWidth=3;fontSize=19;fontColor=#030303;" vertex="1" parent="131">
                    <mxGeometry x="110" y="20" width="95" height="30" as="geometry"/>
                </mxCell>
                <mxCell id="127" value="nigeria" style="text;html=1;strokeColor=none;fillColor=none;align=center;verticalAlign=middle;whiteSpace=wrap;rounded=0;shadow=1;sketch=0;strokeWidth=3;fontSize=19;fontColor=#030303;" vertex="1" parent="131">
                    <mxGeometry x="120" y="50" width="60" height="30" as="geometry"/>
                </mxCell>
                <mxCell id="128" value="" style="rounded=1;whiteSpace=wrap;html=1;shadow=1;sketch=0;strokeColor=#36393d;strokeWidth=3;fontSize=19;fillColor=#cce5ff;" vertex="1" parent="131">
                    <mxGeometry x="20" y="120" width="380" height="350" as="geometry"/>
                </mxCell>
                <mxCell id="129" value="" style="shape=orEllipse;perimeter=ellipsePerimeter;whiteSpace=wrap;html=1;backgroundOutline=1;rounded=0;shadow=1;sketch=0;strokeColor=#311c1c;strokeWidth=3;fontSize=19;fontColor=#030303;fillColor=#FFFFFF;" vertex="1" parent="131">
                    <mxGeometry x="25" y="480" width="50" height="50" as="geometry"/>
                </mxCell>
                <mxCell id="130" value="" style="shape=orEllipse;perimeter=ellipsePerimeter;whiteSpace=wrap;html=1;backgroundOutline=1;rounded=0;shadow=1;sketch=0;strokeColor=#311c1c;strokeWidth=3;fontSize=19;fontColor=#030303;fillColor=#FFFFFF;" vertex="1" parent="131">
                    <mxGeometry x="330" y="480" width="50" height="50" as="geometry"/>
                </mxCell>
                <mxCell id="132" value="" style="group" vertex="1" connectable="0" parent="1">
                    <mxGeometry x="990" y="1030" width="420" height="550" as="geometry"/>
                </mxCell>
                <mxCell id="133" value="" style="rounded=1;whiteSpace=wrap;html=1;shadow=1;sketch=0;strokeColor=none;strokeWidth=3;fontSize=19;fontColor=#030303;fillColor=#FFFFFF;" vertex="1" parent="132">
                    <mxGeometry width="420" height="550" as="geometry"/>
                </mxCell>
                <mxCell id="134" value="" style="ellipse;whiteSpace=wrap;html=1;aspect=fixed;rounded=0;shadow=1;sketch=0;strokeColor=none;strokeWidth=3;fontSize=19;fontColor=#030303;fillColor=#FFFFFF;" vertex="1" parent="132">
                    <mxGeometry x="25" y="20" width="80" height="80" as="geometry"/>
                </mxCell>
                <mxCell id="135" value="John Doe" style="text;html=1;strokeColor=none;fillColor=none;align=center;verticalAlign=middle;whiteSpace=wrap;rounded=0;shadow=1;sketch=0;strokeWidth=3;fontSize=19;fontColor=#030303;" vertex="1" parent="132">
                    <mxGeometry x="110" y="20" width="95" height="30" as="geometry"/>
                </mxCell>
                <mxCell id="136" value="nigeria" style="text;html=1;strokeColor=none;fillColor=none;align=center;verticalAlign=middle;whiteSpace=wrap;rounded=0;shadow=1;sketch=0;strokeWidth=3;fontSize=19;fontColor=#030303;" vertex="1" parent="132">
                    <mxGeometry x="120" y="50" width="60" height="30" as="geometry"/>
                </mxCell>
                <mxCell id="137" value="" style="rounded=1;whiteSpace=wrap;html=1;shadow=1;sketch=0;strokeColor=#36393d;strokeWidth=3;fontSize=19;fillColor=#cce5ff;" vertex="1" parent="132">
                    <mxGeometry x="20" y="120" width="380" height="350" as="geometry"/>
                </mxCell>
                <mxCell id="138" value="" style="shape=orEllipse;perimeter=ellipsePerimeter;whiteSpace=wrap;html=1;backgroundOutline=1;rounded=0;shadow=1;sketch=0;strokeColor=#311c1c;strokeWidth=3;fontSize=19;fontColor=#030303;fillColor=#FFFFFF;" vertex="1" parent="132">
                    <mxGeometry x="25" y="480" width="50" height="50" as="geometry"/>
                </mxCell>
                <mxCell id="139" value="" style="shape=orEllipse;perimeter=ellipsePerimeter;whiteSpace=wrap;html=1;backgroundOutline=1;rounded=0;shadow=1;sketch=0;strokeColor=#311c1c;strokeWidth=3;fontSize=19;fontColor=#030303;fillColor=#FFFFFF;" vertex="1" parent="132">
                    <mxGeometry x="330" y="480" width="50" height="50" as="geometry"/>
                </mxCell>
                <mxCell id="140" value="" style="shape=ext;double=1;rounded=1;whiteSpace=wrap;html=1;shadow=1;sketch=0;strokeColor=none;strokeWidth=3;fontSize=19;fontColor=#030303;fillColor=#FFFFFF;" vertex="1" parent="1">
                    <mxGeometry x="970" y="1650" width="460" height="80" as="geometry"/>
                </mxCell>
                <mxCell id="142" value="" style="shape=orEllipse;perimeter=ellipsePerimeter;whiteSpace=wrap;html=1;backgroundOutline=1;rounded=0;shadow=1;sketch=0;strokeColor=#311c1c;strokeWidth=3;fontSize=19;fontColor=#030303;fillColor=#FFFFFF;" vertex="1" parent="1">
                    <mxGeometry x="1160" y="1630" width="80" height="80" as="geometry"/>
                </mxCell>
                <mxCell id="143" value="" style="shape=sumEllipse;perimeter=ellipsePerimeter;whiteSpace=wrap;html=1;backgroundOutline=1;rounded=0;shadow=1;sketch=0;strokeColor=#311c1c;strokeWidth=3;fontSize=19;fontColor=#030303;fillColor=#FFFFFF;" vertex="1" parent="1">
                    <mxGeometry x="995" y="1670" width="50" height="50" as="geometry"/>
                </mxCell>
                <mxCell id="144" value="" style="shape=sumEllipse;perimeter=ellipsePerimeter;whiteSpace=wrap;html=1;backgroundOutline=1;rounded=0;shadow=1;sketch=0;strokeColor=#311c1c;strokeWidth=3;fontSize=19;fontColor=#030303;fillColor=#FFFFFF;" vertex="1" parent="1">
                    <mxGeometry x="1080" y="1670" width="50" height="50" as="geometry"/>
                </mxCell>
                <mxCell id="145" value="" style="shape=sumEllipse;perimeter=ellipsePerimeter;whiteSpace=wrap;html=1;backgroundOutline=1;rounded=0;shadow=1;sketch=0;strokeColor=#311c1c;strokeWidth=3;fontSize=19;fontColor=#030303;fillColor=#FFFFFF;" vertex="1" parent="1">
                    <mxGeometry x="1275" y="1670" width="50" height="50" as="geometry"/>
                </mxCell>
                <mxCell id="146" value="" style="shape=sumEllipse;perimeter=ellipsePerimeter;whiteSpace=wrap;html=1;backgroundOutline=1;rounded=0;shadow=1;sketch=0;strokeColor=#311c1c;strokeWidth=3;fontSize=19;fontColor=#030303;fillColor=#FFFFFF;" vertex="1" parent="1">
                    <mxGeometry x="1360" y="1670" width="50" height="50" as="geometry"/>
                </mxCell>
            </root>
        </mxGraphModel>
    </diagram>
</mxfile>